# xmcd
#
# Track frame offsets: 
#        183
#        28550
#        50100
#        69900
#        85250
#        105500
#        126168
#        147638
#
# Disc length: 2276 seconds
#
# Revision: 8
# Processed by: cddbd v1.5.2PL0 Copyright (c) Steve Scherf et al.
# Submitted via: ExactAudioCopy v0.99pb3
#
DISCID=6e08e208
DTITLE=Lucio Battisti - Il Mio Canto Libero
DYEAR=1972
DGENRE=Pop
TTITLE0=La luce dell'est
TTITLE1=Luci-ah
TTITLE2=L'aquila
TTITLE3=Vento nel vento
TTITLE4=Confusione
TTITLE5=Io vorrei ... non vorrei ... ma se vuoi
TTITLE6=Gente per bene e gente per male
TTITLE7=Il mio canto libero
EXTD=
EXTT0=
EXTT1=
EXTT2=
EXTT3=
EXTT4=
EXTT5=
EXTT6=
EXTT7=
PLAYORDER=
